<svg xmlns="http://www.w3.org/2000/svg" width="1077.5" height="400" role="img"><rect width="1077.5" height="400" fill="transparent"></rect><g transform="translate(60,30)"><g><line opacity="1" x1="0" x2="0" y1="0" y2="300" stroke="#dddddd" stroke-width="1"></line><line opacity="1" x1="65" x2="65" y1="0" y2="300" stroke="#dddddd" stroke-width="1"></line><line opacity="1" x1="130" x2="130" y1="0" y2="300" stroke="#dddddd" stroke-width="1"></line><line opacity="1" x1="194" x2="194" y1="0" y2="300" stroke="#dddddd" stroke-width="1"></line><line opacity="1" x1="259" x2="259" y1="0" y2="300" stroke="#dddddd" stroke-width="1"></line><line opacity="1" x1="324" x2="324" y1="0" y2="300" stroke="#dddddd" stroke-width="1"></line><line opacity="1" x1="389" x2="389" y1="0" y2="300" stroke="#dddddd" stroke-width="1"></line><line opacity="1" x1="454" x2="454" y1="0" y2="300" stroke="#dddddd" stroke-width="1"></line><line opacity="1" x1="519" x2="519" y1="0" y2="300" stroke="#dddddd" stroke-width="1"></line><line opacity="1" x1="583" x2="583" y1="0" y2="300" stroke="#dddddd" stroke-width="1"></line><line opacity="1" x1="648" x2="648" y1="0" y2="300" stroke="#dddddd" stroke-width="1"></line><line opacity="1" x1="713" x2="713" y1="0" y2="300" stroke="#dddddd" stroke-width="1"></line><line opacity="1" x1="778" x2="778" y1="0" y2="300" stroke="#dddddd" stroke-width="1"></line><line opacity="1" x1="843" x2="843" y1="0" y2="300" stroke="#dddddd" stroke-width="1"></line><line opacity="1" x1="908" x2="908" y1="0" y2="300" stroke="#dddddd" stroke-width="1"></line></g><g><line opacity="1" x1="0" x2="907.5" y1="300" y2="300" stroke="#dddddd" stroke-width="1"></line><line opacity="1" x1="0" x2="907.5" y1="274" y2="274" stroke="#dddddd" stroke-width="1"></line><line opacity="1" x1="0" x2="907.5" y1="248" y2="248" stroke="#dddddd" stroke-width="1"></line><line opacity="1" x1="0" x2="907.5" y1="222" y2="222" stroke="#dddddd" stroke-width="1"></line><line opacity="1" x1="0" x2="907.5" y1="196" y2="196" stroke="#dddddd" stroke-width="1"></line><line opacity="1" x1="0" x2="907.5" y1="170" y2="170" stroke="#dddddd" stroke-width="1"></line><line opacity="1" x1="0" x2="907.5" y1="143" y2="143" stroke="#dddddd" stroke-width="1"></line><line opacity="1" x1="0" x2="907.5" y1="117" y2="117" stroke="#dddddd" stroke-width="1"></line><line opacity="1" x1="0" x2="907.5" y1="91" y2="91" stroke="#dddddd" stroke-width="1"></line><line opacity="1" x1="0" x2="907.5" y1="65" y2="65" stroke="#dddddd" stroke-width="1"></line><line opacity="1" x1="0" x2="907.5" y1="39" y2="39" stroke="#dddddd" stroke-width="1"></line><line opacity="1" x1="0" x2="907.5" y1="13" y2="13" stroke="#dddddd" stroke-width="1"></line></g><g transform="translate(0,300)"><g transform="translate(0,0)" style="opacity: 1;"><line x1="0" x2="0" y1="0" y2="5" style="stroke: rgb(119, 119, 119); stroke-width: 1px;"></line><text dominant-baseline="text-before-edge" text-anchor="middle" transform="translate(0,10) rotate(0)" style="font-family: sans-serif; font-size: 11px; fill: rgb(51, 51, 51);">2</text></g><g transform="translate(65,0)" style="opacity: 1;"><line x1="0" x2="0" y1="0" y2="5" style="stroke: rgb(119, 119, 119); stroke-width: 1px;"></line><text dominant-baseline="text-before-edge" text-anchor="middle" transform="translate(0,10) rotate(0)" style="font-family: sans-serif; font-size: 11px; fill: rgb(51, 51, 51);">4</text></g><g transform="translate(130,0)" style="opacity: 1;"><line x1="0" x2="0" y1="0" y2="5" style="stroke: rgb(119, 119, 119); stroke-width: 1px;"></line><text dominant-baseline="text-before-edge" text-anchor="middle" transform="translate(0,10) rotate(0)" style="font-family: sans-serif; font-size: 11px; fill: rgb(51, 51, 51);">6</text></g><g transform="translate(194,0)" style="opacity: 1;"><line x1="0" x2="0" y1="0" y2="5" style="stroke: rgb(119, 119, 119); stroke-width: 1px;"></line><text dominant-baseline="text-before-edge" text-anchor="middle" transform="translate(0,10) rotate(0)" style="font-family: sans-serif; font-size: 11px; fill: rgb(51, 51, 51);">8</text></g><g transform="translate(259,0)" style="opacity: 1;"><line x1="0" x2="0" y1="0" y2="5" style="stroke: rgb(119, 119, 119); stroke-width: 1px;"></line><text dominant-baseline="text-before-edge" text-anchor="middle" transform="translate(0,10) rotate(0)" style="font-family: sans-serif; font-size: 11px; fill: rgb(51, 51, 51);">10</text></g><g transform="translate(324,0)" style="opacity: 1;"><line x1="0" x2="0" y1="0" y2="5" style="stroke: rgb(119, 119, 119); stroke-width: 1px;"></line><text dominant-baseline="text-before-edge" text-anchor="middle" transform="translate(0,10) rotate(0)" style="font-family: sans-serif; font-size: 11px; fill: rgb(51, 51, 51);">12</text></g><g transform="translate(389,0)" style="opacity: 1;"><line x1="0" x2="0" y1="0" y2="5" style="stroke: rgb(119, 119, 119); stroke-width: 1px;"></line><text dominant-baseline="text-before-edge" text-anchor="middle" transform="translate(0,10) rotate(0)" style="font-family: sans-serif; font-size: 11px; fill: rgb(51, 51, 51);">14</text></g><g transform="translate(454,0)" style="opacity: 1;"><line x1="0" x2="0" y1="0" y2="5" style="stroke: rgb(119, 119, 119); stroke-width: 1px;"></line><text dominant-baseline="text-before-edge" text-anchor="middle" transform="translate(0,10) rotate(0)" style="font-family: sans-serif; font-size: 11px; fill: rgb(51, 51, 51);">16</text></g><g transform="translate(519,0)" style="opacity: 1;"><line x1="0" x2="0" y1="0" y2="5" style="stroke: rgb(119, 119, 119); stroke-width: 1px;"></line><text dominant-baseline="text-before-edge" text-anchor="middle" transform="translate(0,10) rotate(0)" style="font-family: sans-serif; font-size: 11px; fill: rgb(51, 51, 51);">18</text></g><g transform="translate(583,0)" style="opacity: 1;"><line x1="0" x2="0" y1="0" y2="5" style="stroke: rgb(119, 119, 119); stroke-width: 1px;"></line><text dominant-baseline="text-before-edge" text-anchor="middle" transform="translate(0,10) rotate(0)" style="font-family: sans-serif; font-size: 11px; fill: rgb(51, 51, 51);">20</text></g><g transform="translate(648,0)" style="opacity: 1;"><line x1="0" x2="0" y1="0" y2="5" style="stroke: rgb(119, 119, 119); stroke-width: 1px;"></line><text dominant-baseline="text-before-edge" text-anchor="middle" transform="translate(0,10) rotate(0)" style="font-family: sans-serif; font-size: 11px; fill: rgb(51, 51, 51);">22</text></g><g transform="translate(713,0)" style="opacity: 1;"><line x1="0" x2="0" y1="0" y2="5" style="stroke: rgb(119, 119, 119); stroke-width: 1px;"></line><text dominant-baseline="text-before-edge" text-anchor="middle" transform="translate(0,10) rotate(0)" style="font-family: sans-serif; font-size: 11px; fill: rgb(51, 51, 51);">24</text></g><g transform="translate(778,0)" style="opacity: 1;"><line x1="0" x2="0" y1="0" y2="5" style="stroke: rgb(119, 119, 119); stroke-width: 1px;"></line><text dominant-baseline="text-before-edge" text-anchor="middle" transform="translate(0,10) rotate(0)" style="font-family: sans-serif; font-size: 11px; fill: rgb(51, 51, 51);">26</text></g><g transform="translate(843,0)" style="opacity: 1;"><line x1="0" x2="0" y1="0" y2="5" style="stroke: rgb(119, 119, 119); stroke-width: 1px;"></line><text dominant-baseline="text-before-edge" text-anchor="middle" transform="translate(0,10) rotate(0)" style="font-family: sans-serif; font-size: 11px; fill: rgb(51, 51, 51);">28</text></g><g transform="translate(908,0)" style="opacity: 1;"><line x1="0" x2="0" y1="0" y2="5" style="stroke: rgb(119, 119, 119); stroke-width: 1px;"></line><text dominant-baseline="text-before-edge" text-anchor="middle" transform="translate(0,10) rotate(0)" style="font-family: sans-serif; font-size: 11px; fill: rgb(51, 51, 51);">30</text></g><line style="stroke: transparent; stroke-width: 1px;" x1="0" x2="907.5" y1="0" y2="0"></line><text transform="translate(453.75, 36) rotate(0)" text-anchor="middle" style="dominant-baseline: central; font-size: 12px; font-family: sans-serif; fill: rgb(51, 51, 51);">MSM size (log2)</text></g><g transform="translate(0,0)"><g transform="translate(0,300)" style="opacity: 1;"><line x1="0" x2="-5" y1="0" y2="0" style="stroke: rgb(119, 119, 119); stroke-width: 1px;"></line><text dominant-baseline="central" text-anchor="end" transform="translate(-10,0) rotate(10)" style="font-family: sans-serif; font-size: 11px; fill: rgb(51, 51, 51);">0.00 s</text></g><g transform="translate(0,274)" style="opacity: 1;"><line x1="0" x2="-5" y1="0" y2="0" style="stroke: rgb(119, 119, 119); stroke-width: 1px;"></line><text dominant-baseline="central" text-anchor="end" transform="translate(-10,0) rotate(10)" style="font-family: sans-serif; font-size: 11px; fill: rgb(51, 51, 51);">0.00 s</text></g><g transform="translate(0,248)" style="opacity: 1;"><line x1="0" x2="-5" y1="0" y2="0" style="stroke: rgb(119, 119, 119); stroke-width: 1px;"></line><text dominant-baseline="central" text-anchor="end" transform="translate(-10,0) rotate(10)" style="font-family: sans-serif; font-size: 11px; fill: rgb(51, 51, 51);">0.00 s</text></g><g transform="translate(0,222)" style="opacity: 1;"><line x1="0" x2="-5" y1="0" y2="0" style="stroke: rgb(119, 119, 119); stroke-width: 1px;"></line><text dominant-baseline="central" text-anchor="end" transform="translate(-10,0) rotate(10)" style="font-family: sans-serif; font-size: 11px; fill: rgb(51, 51, 51);">0.02 s</text></g><g transform="translate(0,196)" style="opacity: 1;"><line x1="0" x2="-5" y1="0" y2="0" style="stroke: rgb(119, 119, 119); stroke-width: 1px;"></line><text dominant-baseline="central" text-anchor="end" transform="translate(-10,0) rotate(10)" style="font-family: sans-serif; font-size: 11px; fill: rgb(51, 51, 51);">0.07 s</text></g><g transform="translate(0,170)" style="opacity: 1;"><line x1="0" x2="-5" y1="0" y2="0" style="stroke: rgb(119, 119, 119); stroke-width: 1px;"></line><text dominant-baseline="central" text-anchor="end" transform="translate(-10,0) rotate(10)" style="font-family: sans-serif; font-size: 11px; fill: rgb(51, 51, 51);">0.27 s</text></g><g transform="translate(0,143)" style="opacity: 1;"><line x1="0" x2="-5" y1="0" y2="0" style="stroke: rgb(119, 119, 119); stroke-width: 1px;"></line><text dominant-baseline="central" text-anchor="end" transform="translate(-10,0) rotate(10)" style="font-family: sans-serif; font-size: 11px; fill: rgb(51, 51, 51);">1.07 s</text></g><g transform="translate(0,117)" style="opacity: 1;"><line x1="0" x2="-5" y1="0" y2="0" style="stroke: rgb(119, 119, 119); stroke-width: 1px;"></line><text dominant-baseline="central" text-anchor="end" transform="translate(-10,0) rotate(10)" style="font-family: sans-serif; font-size: 11px; fill: rgb(51, 51, 51);">4.29 s</text></g><g transform="translate(0,91)" style="opacity: 1;"><line x1="0" x2="-5" y1="0" y2="0" style="stroke: rgb(119, 119, 119); stroke-width: 1px;"></line><text dominant-baseline="central" text-anchor="end" transform="translate(-10,0) rotate(10)" style="font-family: sans-serif; font-size: 11px; fill: rgb(51, 51, 51);">17.18 s</text></g><g transform="translate(0,65)" style="opacity: 1;"><line x1="0" x2="-5" y1="0" y2="0" style="stroke: rgb(119, 119, 119); stroke-width: 1px;"></line><text dominant-baseline="central" text-anchor="end" transform="translate(-10,0) rotate(10)" style="font-family: sans-serif; font-size: 11px; fill: rgb(51, 51, 51);">68.72 s</text></g><g transform="translate(0,39)" style="opacity: 1;"><line x1="0" x2="-5" y1="0" y2="0" style="stroke: rgb(119, 119, 119); stroke-width: 1px;"></line><text dominant-baseline="central" text-anchor="end" transform="translate(-10,0) rotate(10)" style="font-family: sans-serif; font-size: 11px; fill: rgb(51, 51, 51);">274.88 s</text></g><g transform="translate(0,13)" style="opacity: 1;"><line x1="0" x2="-5" y1="0" y2="0" style="stroke: rgb(119, 119, 119); stroke-width: 1px;"></line><text dominant-baseline="central" text-anchor="end" transform="translate(-10,0) rotate(10)" style="font-family: sans-serif; font-size: 11px; fill: rgb(51, 51, 51);">1099.51 s</text></g><line style="stroke: transparent; stroke-width: 1px;" x1="0" x2="0" y1="0" y2="300"></line></g><path d="M0,294L32,290L65,281L97,275L130,277L162,264L194,263L227,253L259,248L292,241L324,222L357,222L389,211L421,198L454,188L486,177L519,164L551,152L583,140L616,125" fill="none" stroke="#e8c1a0" style="stroke-dasharray: 12px, 6px; stroke-width: 3px;"></path><path d="M616,125L619,124L622,123L625,122L627,120L630,119L633,118L636,117L639,116L642,114L645,113L648,112L651,111L654,110L657,109L660,107L662,106L665,105L668,104L671,103L674,101L677,100L680,99L683,98L686,97L689,96L692,94L695,93L697,92L700,91L703,90L706,88L709,87L712,86L715,85L718,84L721,83L724,81L727,80L730,79L732,78L735,77L738,76L741,74L744,73L747,72L750,71L753,70L756,68L759,67L762,66L765,65L767,64L770,63L773,61L776,60L779,59L782,58L785,57L788,56L791,54L794,53L797,52L800,51L802,50L805,49L808,47L811,46L814,45L817,44L820,43L823,41L826,40L829,39L832,38L835,37L837,36L840,34L843,33L846,32L849,31L852,30L855,29L858,27L861,26L864,25L867,24L870,23L872,22L875,20L878,19L881,18L884,17L887,16L890,14L893,13L896,12L899,11L902,10L905,9" fill="none" stroke="#f47560" style="stroke-width: 1.5px;"></path><g transform="translate(616, 0)"><line x1="0" x2="0" y1="0" y2="300" stroke="#000000" stroke-width="1" style="stroke: rgb(176, 65, 62); stroke-width: 2px; opacity: 0.5;"></line><text transform="translate(14, 160) rotate(-90)" text-anchor="end" dominant-baseline="central" style="fill: rgb(176, 65, 62); font-weight: bold; font-size: 10px; opacity: 0.5;">Extrapolation starts here</text></g><g><rect width="907.5" height="300" fill="red" opacity="0" style="cursor: auto;"></rect></g><g transform="translate(827.5,260)"><g transform="translate(0,0)" style="opacity: 0.75;"><rect width="80" height="20" fill="transparent" style="cursor: auto;"></rect><circle r="6" cx="6" cy="10" fill="#f47560" opacity="1" stroke-width="0" stroke="rgba(0, 0, 0, .5)" style="pointer-events: none;"></circle><text text-anchor="start" style="font-family: sans-serif; font-size: 11px; fill: rgb(51, 51, 51); dominant-baseline: central; pointer-events: none; user-select: none;" x="20" y="10">extrapolation</text></g><g transform="translate(0,20)" style="opacity: 0.75;"><rect width="80" height="20" fill="transparent" style="cursor: auto;"></rect><circle r="6" cx="6" cy="10" fill="#e8c1a0" opacity="1" stroke-width="0" stroke="rgba(0, 0, 0, .5)" style="pointer-events: none;"></circle><text text-anchor="start" style="font-family: sans-serif; font-size: 11px; fill: rgb(51, 51, 51); dominant-baseline: central; pointer-events: none; user-select: none;" x="20" y="10">interpolation</text></g></g></g></svg>
