<svg xmlns="http://www.w3.org/2000/svg" width="1077.5" height="400" role="img"><rect width="1077.5" height="400" fill="transparent"></rect><g transform="translate(60,30)"><g><line opacity="1" x1="0" x2="0" y1="0" y2="300" stroke="#dddddd" stroke-width="1"></line><line opacity="1" x1="96" x2="96" y1="0" y2="300" stroke="#dddddd" stroke-width="1"></line><line opacity="1" x1="191" x2="191" y1="0" y2="300" stroke="#dddddd" stroke-width="1"></line><line opacity="1" x1="287" x2="287" y1="0" y2="300" stroke="#dddddd" stroke-width="1"></line><line opacity="1" x1="382" x2="382" y1="0" y2="300" stroke="#dddddd" stroke-width="1"></line><line opacity="1" x1="478" x2="478" y1="0" y2="300" stroke="#dddddd" stroke-width="1"></line><line opacity="1" x1="573" x2="573" y1="0" y2="300" stroke="#dddddd" stroke-width="1"></line><line opacity="1" x1="669" x2="669" y1="0" y2="300" stroke="#dddddd" stroke-width="1"></line><line opacity="1" x1="764" x2="764" y1="0" y2="300" stroke="#dddddd" stroke-width="1"></line><line opacity="1" x1="860" x2="860" y1="0" y2="300" stroke="#dddddd" stroke-width="1"></line></g><g><line opacity="1" x1="0" x2="907.5" y1="300" y2="300" stroke="#dddddd" stroke-width="1"></line><line opacity="1" x1="0" x2="907.5" y1="279" y2="279" stroke="#dddddd" stroke-width="1"></line><line opacity="1" x1="0" x2="907.5" y1="257" y2="257" stroke="#dddddd" stroke-width="1"></line><line opacity="1" x1="0" x2="907.5" y1="236" y2="236" stroke="#dddddd" stroke-width="1"></line><line opacity="1" x1="0" x2="907.5" y1="214" y2="214" stroke="#dddddd" stroke-width="1"></line><line opacity="1" x1="0" x2="907.5" y1="193" y2="193" stroke="#dddddd" stroke-width="1"></line><line opacity="1" x1="0" x2="907.5" y1="171" y2="171" stroke="#dddddd" stroke-width="1"></line><line opacity="1" x1="0" x2="907.5" y1="150" y2="150" stroke="#dddddd" stroke-width="1"></line><line opacity="1" x1="0" x2="907.5" y1="129" y2="129" stroke="#dddddd" stroke-width="1"></line><line opacity="1" x1="0" x2="907.5" y1="107" y2="107" stroke="#dddddd" stroke-width="1"></line><line opacity="1" x1="0" x2="907.5" y1="86" y2="86" stroke="#dddddd" stroke-width="1"></line><line opacity="1" x1="0" x2="907.5" y1="64" y2="64" stroke="#dddddd" stroke-width="1"></line><line opacity="1" x1="0" x2="907.5" y1="43" y2="43" stroke="#dddddd" stroke-width="1"></line><line opacity="1" x1="0" x2="907.5" y1="21" y2="21" stroke="#dddddd" stroke-width="1"></line><line opacity="1" x1="0" x2="907.5" y1="0" y2="0" stroke="#dddddd" stroke-width="1"></line></g><g transform="translate(0,300)"><g transform="translate(0,0)" style="opacity: 1;"><line x1="0" x2="0" y1="0" y2="5" style="stroke: rgb(119, 119, 119); stroke-width: 1px;"></line><text dominant-baseline="text-before-edge" text-anchor="middle" transform="translate(0,10) rotate(0)" style="font-family: sans-serif; font-size: 11px; fill: rgb(51, 51, 51);">2</text></g><g transform="translate(96,0)" style="opacity: 1;"><line x1="0" x2="0" y1="0" y2="5" style="stroke: rgb(119, 119, 119); stroke-width: 1px;"></line><text dominant-baseline="text-before-edge" text-anchor="middle" transform="translate(0,10) rotate(0)" style="font-family: sans-serif; font-size: 11px; fill: rgb(51, 51, 51);">4</text></g><g transform="translate(191,0)" style="opacity: 1;"><line x1="0" x2="0" y1="0" y2="5" style="stroke: rgb(119, 119, 119); stroke-width: 1px;"></line><text dominant-baseline="text-before-edge" text-anchor="middle" transform="translate(0,10) rotate(0)" style="font-family: sans-serif; font-size: 11px; fill: rgb(51, 51, 51);">6</text></g><g transform="translate(287,0)" style="opacity: 1;"><line x1="0" x2="0" y1="0" y2="5" style="stroke: rgb(119, 119, 119); stroke-width: 1px;"></line><text dominant-baseline="text-before-edge" text-anchor="middle" transform="translate(0,10) rotate(0)" style="font-family: sans-serif; font-size: 11px; fill: rgb(51, 51, 51);">8</text></g><g transform="translate(382,0)" style="opacity: 1;"><line x1="0" x2="0" y1="0" y2="5" style="stroke: rgb(119, 119, 119); stroke-width: 1px;"></line><text dominant-baseline="text-before-edge" text-anchor="middle" transform="translate(0,10) rotate(0)" style="font-family: sans-serif; font-size: 11px; fill: rgb(51, 51, 51);">10</text></g><g transform="translate(478,0)" style="opacity: 1;"><line x1="0" x2="0" y1="0" y2="5" style="stroke: rgb(119, 119, 119); stroke-width: 1px;"></line><text dominant-baseline="text-before-edge" text-anchor="middle" transform="translate(0,10) rotate(0)" style="font-family: sans-serif; font-size: 11px; fill: rgb(51, 51, 51);">12</text></g><g transform="translate(573,0)" style="opacity: 1;"><line x1="0" x2="0" y1="0" y2="5" style="stroke: rgb(119, 119, 119); stroke-width: 1px;"></line><text dominant-baseline="text-before-edge" text-anchor="middle" transform="translate(0,10) rotate(0)" style="font-family: sans-serif; font-size: 11px; fill: rgb(51, 51, 51);">14</text></g><g transform="translate(669,0)" style="opacity: 1;"><line x1="0" x2="0" y1="0" y2="5" style="stroke: rgb(119, 119, 119); stroke-width: 1px;"></line><text dominant-baseline="text-before-edge" text-anchor="middle" transform="translate(0,10) rotate(0)" style="font-family: sans-serif; font-size: 11px; fill: rgb(51, 51, 51);">16</text></g><g transform="translate(764,0)" style="opacity: 1;"><line x1="0" x2="0" y1="0" y2="5" style="stroke: rgb(119, 119, 119); stroke-width: 1px;"></line><text dominant-baseline="text-before-edge" text-anchor="middle" transform="translate(0,10) rotate(0)" style="font-family: sans-serif; font-size: 11px; fill: rgb(51, 51, 51);">18</text></g><g transform="translate(860,0)" style="opacity: 1;"><line x1="0" x2="0" y1="0" y2="5" style="stroke: rgb(119, 119, 119); stroke-width: 1px;"></line><text dominant-baseline="text-before-edge" text-anchor="middle" transform="translate(0,10) rotate(0)" style="font-family: sans-serif; font-size: 11px; fill: rgb(51, 51, 51);">20</text></g><line style="stroke: transparent; stroke-width: 1px;" x1="0" x2="907.5" y1="0" y2="0"></line><text transform="translate(453.75, 36) rotate(0)" text-anchor="middle" style="dominant-baseline: central; font-size: 12px; font-family: sans-serif; fill: rgb(51, 51, 51);">MSM size (log2)</text></g><g transform="translate(0,0)"><g transform="translate(0,300)" style="opacity: 1;"><line x1="0" x2="-5" y1="0" y2="0" style="stroke: rgb(119, 119, 119); stroke-width: 1px;"></line><text dominant-baseline="central" text-anchor="end" transform="translate(-10,0) rotate(10)" style="font-family: sans-serif; font-size: 11px; fill: rgb(51, 51, 51);">0.00 s</text></g><g transform="translate(0,279)" style="opacity: 1;"><line x1="0" x2="-5" y1="0" y2="0" style="stroke: rgb(119, 119, 119); stroke-width: 1px;"></line><text dominant-baseline="central" text-anchor="end" transform="translate(-10,0) rotate(10)" style="font-family: sans-serif; font-size: 11px; fill: rgb(51, 51, 51);">0.00 s</text></g><g transform="translate(0,257)" style="opacity: 1;"><line x1="0" x2="-5" y1="0" y2="0" style="stroke: rgb(119, 119, 119); stroke-width: 1px;"></line><text dominant-baseline="central" text-anchor="end" transform="translate(-10,0) rotate(10)" style="font-family: sans-serif; font-size: 11px; fill: rgb(51, 51, 51);">0.00 s</text></g><g transform="translate(0,236)" style="opacity: 1;"><line x1="0" x2="-5" y1="0" y2="0" style="stroke: rgb(119, 119, 119); stroke-width: 1px;"></line><text dominant-baseline="central" text-anchor="end" transform="translate(-10,0) rotate(10)" style="font-family: sans-serif; font-size: 11px; fill: rgb(51, 51, 51);">0.00 s</text></g><g transform="translate(0,214)" style="opacity: 1;"><line x1="0" x2="-5" y1="0" y2="0" style="stroke: rgb(119, 119, 119); stroke-width: 1px;"></line><text dominant-baseline="central" text-anchor="end" transform="translate(-10,0) rotate(10)" style="font-family: sans-serif; font-size: 11px; fill: rgb(51, 51, 51);">0.00 s</text></g><g transform="translate(0,193)" style="opacity: 1;"><line x1="0" x2="-5" y1="0" y2="0" style="stroke: rgb(119, 119, 119); stroke-width: 1px;"></line><text dominant-baseline="central" text-anchor="end" transform="translate(-10,0) rotate(10)" style="font-family: sans-serif; font-size: 11px; fill: rgb(51, 51, 51);">0.01 s</text></g><g transform="translate(0,171)" style="opacity: 1;"><line x1="0" x2="-5" y1="0" y2="0" style="stroke: rgb(119, 119, 119); stroke-width: 1px;"></line><text dominant-baseline="central" text-anchor="end" transform="translate(-10,0) rotate(10)" style="font-family: sans-serif; font-size: 11px; fill: rgb(51, 51, 51);">0.02 s</text></g><g transform="translate(0,150)" style="opacity: 1;"><line x1="0" x2="-5" y1="0" y2="0" style="stroke: rgb(119, 119, 119); stroke-width: 1px;"></line><text dominant-baseline="central" text-anchor="end" transform="translate(-10,0) rotate(10)" style="font-family: sans-serif; font-size: 11px; fill: rgb(51, 51, 51);">0.03 s</text></g><g transform="translate(0,129)" style="opacity: 1;"><line x1="0" x2="-5" y1="0" y2="0" style="stroke: rgb(119, 119, 119); stroke-width: 1px;"></line><text dominant-baseline="central" text-anchor="end" transform="translate(-10,0) rotate(10)" style="font-family: sans-serif; font-size: 11px; fill: rgb(51, 51, 51);">0.07 s</text></g><g transform="translate(0,107)" style="opacity: 1;"><line x1="0" x2="-5" y1="0" y2="0" style="stroke: rgb(119, 119, 119); stroke-width: 1px;"></line><text dominant-baseline="central" text-anchor="end" transform="translate(-10,0) rotate(10)" style="font-family: sans-serif; font-size: 11px; fill: rgb(51, 51, 51);">0.13 s</text></g><g transform="translate(0,86)" style="opacity: 1;"><line x1="0" x2="-5" y1="0" y2="0" style="stroke: rgb(119, 119, 119); stroke-width: 1px;"></line><text dominant-baseline="central" text-anchor="end" transform="translate(-10,0) rotate(10)" style="font-family: sans-serif; font-size: 11px; fill: rgb(51, 51, 51);">0.27 s</text></g><g transform="translate(0,64)" style="opacity: 1;"><line x1="0" x2="-5" y1="0" y2="0" style="stroke: rgb(119, 119, 119); stroke-width: 1px;"></line><text dominant-baseline="central" text-anchor="end" transform="translate(-10,0) rotate(10)" style="font-family: sans-serif; font-size: 11px; fill: rgb(51, 51, 51);">0.54 s</text></g><g transform="translate(0,43)" style="opacity: 1;"><line x1="0" x2="-5" y1="0" y2="0" style="stroke: rgb(119, 119, 119); stroke-width: 1px;"></line><text dominant-baseline="central" text-anchor="end" transform="translate(-10,0) rotate(10)" style="font-family: sans-serif; font-size: 11px; fill: rgb(51, 51, 51);">1.07 s</text></g><g transform="translate(0,21)" style="opacity: 1;"><line x1="0" x2="-5" y1="0" y2="0" style="stroke: rgb(119, 119, 119); stroke-width: 1px;"></line><text dominant-baseline="central" text-anchor="end" transform="translate(-10,0) rotate(10)" style="font-family: sans-serif; font-size: 11px; fill: rgb(51, 51, 51);">2.15 s</text></g><g transform="translate(0,0)" style="opacity: 1;"><line x1="0" x2="-5" y1="0" y2="0" style="stroke: rgb(119, 119, 119); stroke-width: 1px;"></line><text dominant-baseline="central" text-anchor="end" transform="translate(-10,0) rotate(10)" style="font-family: sans-serif; font-size: 11px; fill: rgb(51, 51, 51);">4.29 s</text></g><line style="stroke: transparent; stroke-width: 1px;" x1="0" x2="0" y1="0" y2="300"></line></g><path d="M0,290L48,284L96,269L143,259L191,263L239,241L287,240L334,223L382,215L430,203L478,172L525,172L573,154L621,133L669,116L716,97L764,77L812,58L860,37L908,12" fill="none" stroke="#e8c1a0" style="stroke-width: 0px;"></path><g><g transform="translate(908, 12)" style="pointer-events: none;"><circle r="3" fill="#e8c1a0" stroke="transparent" stroke-width="0" style="pointer-events: none;"></circle></g><g transform="translate(860, 37)" style="pointer-events: none;"><circle r="3" fill="#e8c1a0" stroke="transparent" stroke-width="0" style="pointer-events: none;"></circle></g><g transform="translate(812, 58)" style="pointer-events: none;"><circle r="3" fill="#e8c1a0" stroke="transparent" stroke-width="0" style="pointer-events: none;"></circle></g><g transform="translate(764, 77)" style="pointer-events: none;"><circle r="3" fill="#e8c1a0" stroke="transparent" stroke-width="0" style="pointer-events: none;"></circle></g><g transform="translate(716, 97)" style="pointer-events: none;"><circle r="3" fill="#e8c1a0" stroke="transparent" stroke-width="0" style="pointer-events: none;"></circle></g><g transform="translate(669, 116)" style="pointer-events: none;"><circle r="3" fill="#e8c1a0" stroke="transparent" stroke-width="0" style="pointer-events: none;"></circle></g><g transform="translate(621, 133)" style="pointer-events: none;"><circle r="3" fill="#e8c1a0" stroke="transparent" stroke-width="0" style="pointer-events: none;"></circle></g><g transform="translate(573, 154)" style="pointer-events: none;"><circle r="3" fill="#e8c1a0" stroke="transparent" stroke-width="0" style="pointer-events: none;"></circle></g><g transform="translate(525, 172)" style="pointer-events: none;"><circle r="3" fill="#e8c1a0" stroke="transparent" stroke-width="0" style="pointer-events: none;"></circle></g><g transform="translate(478, 172)" style="pointer-events: none;"><circle r="3" fill="#e8c1a0" stroke="transparent" stroke-width="0" style="pointer-events: none;"></circle></g><g transform="translate(430, 203)" style="pointer-events: none;"><circle r="3" fill="#e8c1a0" stroke="transparent" stroke-width="0" style="pointer-events: none;"></circle></g><g transform="translate(382, 215)" style="pointer-events: none;"><circle r="3" fill="#e8c1a0" stroke="transparent" stroke-width="0" style="pointer-events: none;"></circle></g><g transform="translate(334, 223)" style="pointer-events: none;"><circle r="3" fill="#e8c1a0" stroke="transparent" stroke-width="0" style="pointer-events: none;"></circle></g><g transform="translate(287, 240)" style="pointer-events: none;"><circle r="3" fill="#e8c1a0" stroke="transparent" stroke-width="0" style="pointer-events: none;"></circle></g><g transform="translate(239, 241)" style="pointer-events: none;"><circle r="3" fill="#e8c1a0" stroke="transparent" stroke-width="0" style="pointer-events: none;"></circle></g><g transform="translate(191, 263)" style="pointer-events: none;"><circle r="3" fill="#e8c1a0" stroke="transparent" stroke-width="0" style="pointer-events: none;"></circle></g><g transform="translate(143, 259)" style="pointer-events: none;"><circle r="3" fill="#e8c1a0" stroke="transparent" stroke-width="0" style="pointer-events: none;"></circle></g><g transform="translate(96, 269)" style="pointer-events: none;"><circle r="3" fill="#e8c1a0" stroke="transparent" stroke-width="0" style="pointer-events: none;"></circle></g><g transform="translate(48, 284)" style="pointer-events: none;"><circle r="3" fill="#e8c1a0" stroke="transparent" stroke-width="0" style="pointer-events: none;"></circle></g><g transform="translate(0, 290)" style="pointer-events: none;"><circle r="3" fill="#e8c1a0" stroke="transparent" stroke-width="0" style="pointer-events: none;"></circle></g></g><g><rect width="907.5" height="300" fill="red" opacity="0" style="cursor: auto;"></rect></g></g></svg>
